<svg width="48" height="48" viewBox="0 0 48 48" fill="none" xmlns="http://www.w3.org/2000/svg">
<g clip-path="url(#clip0_8_40)">
<path d="M40.634 8.98401C37.574 7.60401 34.294 6.58401 30.864 6.00401C30.8335 5.99814 30.8018 6.00192 30.7735 6.01482C30.7452 6.02772 30.7216 6.0491 30.706 6.07601C30.286 6.81401 29.818 7.77601 29.49 8.53601C25.8522 7.99248 22.1538 7.99248 18.516 8.53601C18.1507 7.69373 17.7387 6.87246 17.282 6.07601C17.2665 6.04877 17.2431 6.02691 17.2149 6.01333C17.1866 5.99975 17.1549 5.9951 17.124 6.00001C13.696 6.58001 10.416 7.60001 7.354 8.98201C7.32766 8.99306 7.30532 9.0119 7.29 9.03601C1.066 18.186 -0.64 27.11 0.198 35.922C0.200332 35.9436 0.207031 35.9645 0.21769 35.9834C0.228349 36.0023 0.242744 36.0188 0.26 36.032C3.89278 38.6769 7.94467 40.6916 12.246 41.992C12.276 42.0012 12.3081 42.0012 12.338 41.9919C12.368 41.9827 12.3945 41.9646 12.414 41.94C13.3396 40.7021 14.1598 39.3889 14.866 38.014C14.8758 37.9952 14.8815 37.9745 14.8826 37.9534C14.8837 37.9322 14.8802 37.911 14.8725 37.8913C14.8647 37.8716 14.8528 37.8538 14.8375 37.839C14.8222 37.8243 14.804 37.8131 14.784 37.806C13.492 37.3195 12.2402 36.7323 11.04 36.05C11.0184 36.0377 11.0003 36.0202 10.9871 35.9992C10.974 35.9781 10.9663 35.9541 10.9647 35.9293C10.9631 35.9045 10.9677 35.8798 10.978 35.8572C10.9884 35.8346 11.0042 35.815 11.024 35.8C11.276 35.614 11.528 35.42 11.768 35.226C11.7896 35.2086 11.8156 35.1975 11.8432 35.1939C11.8707 35.1904 11.8987 35.1946 11.924 35.206C19.778 38.734 28.284 38.734 36.046 35.206C36.0714 35.1939 36.0996 35.1892 36.1276 35.1923C36.1555 35.1955 36.182 35.2065 36.204 35.224C36.444 35.42 36.694 35.614 36.948 35.8C36.968 35.8147 36.9841 35.834 36.9948 35.8564C37.0054 35.8788 37.0104 35.9035 37.0092 35.9282C37.008 35.953 37.0007 35.9771 36.9879 35.9983C36.9752 36.0196 36.9573 36.0373 36.936 36.05C35.74 36.738 34.496 37.32 33.19 37.804C33.1699 37.8113 33.1517 37.8228 33.1364 37.8377C33.1211 37.8526 33.1092 37.8706 33.1015 37.8904C33.0937 37.9103 33.0903 37.9316 33.0914 37.9529C33.0925 37.9742 33.0982 37.9951 33.108 38.014C33.828 39.388 34.652 40.696 35.558 41.938C35.5768 41.9635 35.6031 41.9825 35.6331 41.9926C35.6632 42.0026 35.6956 42.0031 35.726 41.994C40.0347 40.6973 44.0932 38.6816 47.73 36.032C47.7477 36.0196 47.7626 36.0035 47.7737 35.9849C47.7847 35.9663 47.7916 35.9455 47.794 35.924C48.794 25.736 46.118 16.884 40.696 9.04001C40.6827 9.01452 40.6607 8.99465 40.634 8.98401ZM16.04 30.556C13.676 30.556 11.726 28.418 11.726 25.796C11.726 23.172 13.638 21.036 16.04 21.036C18.46 21.036 20.392 23.19 20.354 25.796C20.354 28.42 18.442 30.556 16.04 30.556ZM31.99 30.556C29.624 30.556 27.676 28.418 27.676 25.796C27.676 23.172 29.586 21.036 31.99 21.036C34.41 21.036 36.342 23.19 36.304 25.796C36.304 28.42 34.412 30.556 31.99 30.556Z" fill="#699BF7"/>
</g>
<defs>
<clipPath id="clip0_8_40">
<rect width="48" height="48" fill="white"/>
</clipPath>
</defs>
</svg>
