<svg width="48" height="48" viewBox="0 0 48 48" fill="none" xmlns="http://www.w3.org/2000/svg">
<g clip-path="url(#clip0_8_38)">
<path fill-rule="evenodd" clip-rule="evenodd" d="M48 24C48 37.254 37.254 48 24 48C10.746 48 0 37.254 0 24C0 10.746 10.746 0 24 0C37.254 0 48 10.746 48 24ZM39.376 22.116C39.764 22.67 39.984 23.324 40.008 24C40.0185 24.6613 39.8414 25.3121 39.4974 25.877C39.1534 26.4419 38.6564 26.8978 38.064 27.192C38.092 27.544 38.092 27.896 38.064 28.248C38.064 33.624 31.8 37.992 24.072 37.992C16.344 37.992 10.08 33.624 10.08 28.248C10.053 27.8965 10.053 27.5435 10.08 27.192C9.62234 26.9778 9.2165 26.667 8.89038 26.281C8.56425 25.895 8.32557 25.443 8.19075 24.956C8.05592 24.469 8.02815 23.9585 8.10934 23.4598C8.19053 22.961 8.37875 22.4858 8.66107 22.0667C8.94339 21.6476 9.31311 21.2946 9.74482 21.032C10.1765 20.7693 10.66 20.6033 11.162 20.5453C11.6639 20.4872 12.1725 20.5386 12.6528 20.6958C13.133 20.853 13.5735 21.1124 13.944 21.456C16.7095 19.5805 19.9629 18.5544 23.304 18.504L25.08 10.176C25.0999 10.0796 25.1388 9.98809 25.1944 9.90682C25.25 9.82555 25.3211 9.75611 25.4037 9.70253C25.4863 9.64895 25.5787 9.6123 25.6756 9.5947C25.7724 9.5771 25.8718 9.5789 25.968 9.6L31.848 10.776C32.1352 10.2826 32.5887 9.9078 33.1274 9.71875C33.666 9.52969 34.2543 9.5388 34.7868 9.74445C35.3193 9.95009 35.7611 10.3388 36.0329 10.8408C36.3046 11.3428 36.3885 11.9252 36.2695 12.4835C36.1505 13.0418 35.8365 13.5394 35.3837 13.887C34.9309 14.2346 34.369 14.4095 33.7989 14.3801C33.2288 14.3508 32.6879 14.1192 32.2731 13.727C31.8584 13.3348 31.5971 12.8076 31.536 12.24L26.4 11.16L24.84 18.648C28.1405 18.7188 31.3498 19.7441 34.08 21.6C34.4445 21.2496 34.8805 20.9822 35.3581 20.8163C35.8357 20.6504 36.3436 20.5899 36.8468 20.639C37.35 20.688 37.8366 20.8454 38.2732 21.1004C38.7098 21.3553 39.086 21.7018 39.376 22.116ZM16.412 25.066C16.2368 25.3281 16.115 25.6222 16.0534 25.9314C15.9919 26.2406 15.9919 26.5589 16.0533 26.8681C16.1775 27.4926 16.5446 28.0422 17.074 28.396C17.6034 28.7498 18.2516 28.8788 18.8761 28.7547C19.1853 28.6932 19.4794 28.5714 19.7416 28.3963C20.0037 28.2212 20.2288 27.9961 20.404 27.734C20.7578 27.2046 20.8868 26.5564 20.7627 25.9319C20.6385 25.3074 20.2714 24.7578 19.742 24.404C19.2126 24.0502 18.5644 23.9212 17.9399 24.0453C17.3154 24.1695 16.7658 24.5366 16.412 25.066ZM24.024 34.848C26.154 34.936 28.25 34.38 29.952 33.096C30.0793 32.9719 30.1521 32.8023 30.1543 32.6245C30.1566 32.4467 30.0881 32.2753 29.964 32.148C29.9025 32.085 29.8293 32.0347 29.7484 31.9999C29.6675 31.9652 29.5805 31.9468 29.4925 31.9457C29.3147 31.9434 29.1433 32.0119 29.016 32.136C27.5595 33.1809 25.7899 33.6973 24 33.6C22.2123 33.6799 20.451 33.1464 19.008 32.088C18.8836 31.9859 18.7258 31.9338 18.5651 31.9417C18.4044 31.9496 18.2524 32.0169 18.1387 32.1307C18.0249 32.2444 17.9576 32.3964 17.9497 32.5571C17.9418 32.7178 17.9939 32.8757 18.096 33C19.7987 34.2832 21.8937 34.9363 24.024 34.848ZM28.186 28.492C28.582 28.756 29.022 28.992 29.496 28.992C29.8215 28.9958 30.1444 28.9333 30.445 28.8083C30.7455 28.6833 31.0175 28.4983 31.2443 28.2648C31.4711 28.0313 31.6479 27.754 31.7641 27.4499C31.8803 27.1458 31.9333 26.8213 31.92 26.496C31.9198 26.0814 31.8123 25.674 31.6079 25.3133C31.4034 24.9527 31.1091 24.6512 30.7534 24.4381C30.3978 24.225 29.9931 24.1077 29.5786 24.0976C29.1642 24.0875 28.7542 24.1849 28.3886 24.3803C28.023 24.5757 27.7142 24.8626 27.4924 25.2128C27.2706 25.563 27.1433 25.9647 27.1229 26.3788C27.1025 26.7928 27.1897 27.2051 27.376 27.5755C27.5623 27.9458 27.8414 28.2616 28.186 28.492Z" fill="#F24E1E"/>
</g>
<defs>
<clipPath id="clip0_8_38">
<rect width="48" height="48" fill="white"/>
</clipPath>
</defs>
</svg>
